{
  "accessors": [
    {
      "bufferView": 2,
      "componentType": 5126,
      "count": 65532,
      "max": [
        2.3077893257141113,
        1.9751172065734863,
        0.9189708828926086
      ],
      "min": [
        -2.262749195098877,
        -1.9751172065734863,
        -0.788764476776123
      ],
      "type": "VEC3"
    },
    {
      "bufferView": 2,
      "byteOffset": 786384,
      "componentType": 5126,
      "count": 65532,
      "max": [
        0.9999996423721313,
        0.9999998807907104,
        0.9999983310699463
      ],
      "min": [
        -0.9999961853027344,
        -1.0,
        -0.9892401695251465
      ],
      "type": "VEC3"
    },
    {
      "bufferView": 1,
      "componentType": 5126,
      "count": 65532,
      "max": [
        0.9986661672592163,
        0.9985885620117188
      ],
      "min": [
        0.0013339141150936484,
        0.0013339141150936484
      ],
      "type": "VEC2"
    },
    {
      "bufferView": 0,
      "componentType": 5125,
      "count": 313710,
      "type": "SCALAR"
    },
    {
      "bufferView": 2,
      "byteOffset": 1572768,
      "componentType": 5126,
      "count": 24564,
      "max": [
        2.288236141204834,
        1.9731459617614746,
        0.7009828686714172
      ],
      "min": [
        -2.1939241886138916,
        -1.9696722030639648,
        -0.7879939079284668
      ],
      "type": "VEC3"
    },
    {
      "bufferView": 2,
      "byteOffset": 1867536,
      "componentType": 5126,
      "count": 24564,
      "max": [
        0.9999967813491821,
        0.9999998807907104,
        0.9999998807907104
      ],
      "min": [
        -0.9999902248382568,
        -0.9999990463256836,
        -0.98796147108078
      ],
      "type": "VEC3"
    },
    {
      "bufferView": 1,
      "byteOffset": 524256,
      "componentType": 5126,
      "count": 24564,
      "max": [
        0.9986502528190613,
        0.9986459612846375
      ],
      "min": [
        0.0013339141150936484,
        0.0013339141150936484
      ],
      "type": "VEC2"
    },
    {
      "bufferView": 0,
      "byteOffset": 1254840,
      "componentType": 5125,
      "count": 81177,
      "type": "SCALAR"
    }
  ],
  "asset": {
    "extras": {
      "author": "GSXNet (https://sketchfab.com/gsxn)",
      "license": "CC-BY-NC-4.0 (http://creativecommons.org/licenses/by-nc/4.0/)",
      "source": "https://sketchfab.com/3d-models/harlech-castle-wales-unesco-world-heritage-201f29ff3c1a49adb3d97bb7dd7ff043",
      "title": "Harlech Castle Wales - UNESCO World Heritage"
    },
    "generator": "Sketchfab-12.67.0",
    "version": "2.0"
  },
  "bufferViews": [
    {
      "buffer": 0,
      "byteLength": 1579548,
      "name": "floatBufferViews",
      "target": 34963
    },
    {
      "buffer": 0,
      "byteLength": 720768,
      "byteOffset": 1579548,
      "byteStride": 8,
      "name": "floatBufferViews",
      "target": 34962
    },
    {
      "buffer": 0,
      "byteLength": 2162304,
      "byteOffset": 2300316,
      "byteStride": 12,
      "name": "floatBufferViews",
      "target": 34962
    }
  ],
  "buffers": [
    {
      "byteLength": 4462620,
      "uri": "scene.bin"
    }
  ],
  "images": [
    {
      "uri": "textures/Castle_baseColor.jpeg"
    }
  ],
  "materials": [
    {
      "doubleSided": true,
      "name": "Castle",
      "pbrMetallicRoughness": {
        "baseColorTexture": {
          "index": 0
        },
        "metallicFactor": 0.0,
        "roughnessFactor": 0.8239417257461427
      }
    }
  ],
  "meshes": [
    {
      "name": "HarlechCastle_Castle_0",
      "primitives": [
        {
          "attributes": {
            "NORMAL": 1,
            "POSITION": 0,
            "TEXCOORD_0": 2
          },
          "indices": 3,
          "material": 0,
          "mode": 4
        }
      ]
    },
    {
      "name": "HarlechCastle_Castle_0",
      "primitives": [
        {
          "attributes": {
            "NORMAL": 5,
            "POSITION": 4,
            "TEXCOORD_0": 6
          },
          "indices": 7,
          "material": 0,
          "mode": 4
        }
      ]
    }
  ],
  "nodes": [
    {
      "children": [
        1
      ],
      "matrix": [
        1.0,
        0.0,
        0.0,
        0.0,
        0.0,
        2.220446049250313e-16,
        -1.0,
        0.0,
        0.0,
        1.0,
        2.220446049250313e-16,
        0.0,
        0.0,
        0.0,
        0.0,
        1.0
      ],
      "name": "Sketchfab_model"
    },
    {
      "children": [
        2
      ],
      "matrix": [
        1.0,
        0.0,
        0.0,
        0.0,
        0.0,
        0.0,
        1.0,
        0.0,
        0.0,
        -1.0,
        0.0,
        0.0,
        0.0,
        0.0,
        0.0,
        1.0
      ],
      "name": "HarlechCastle.fbx"
    },
    {
      "children": [
        3
      ],
      "name": "RootNode"
    },
    {
      "children": [
        4,
        5
      ],
      "matrix": [
        100.0,
        0.0,
        0.0,
        0.0,
        0.0,
        -1.629206793918314e-05,
        -99.99999999999868,
        0.0,
        0.0,
        99.99999999999868,
        -1.629206793918314e-05,
        0.0,
        0.0,
        0.0,
        0.0,
        1.0
      ],
      "name": "HarlechCastle"
    },
    {
      "mesh": 0,
      "name": "HarlechCastle_Castle_0"
    },
    {
      "mesh": 1,
      "name": "HarlechCastle_Castle_0"
    }
  ],
  "samplers": [
    {
      "magFilter": 9729,
      "minFilter": 9987,
      "wrapS": 10497,
      "wrapT": 10497
    }
  ],
  "scene": 0,
  "scenes": [
    {
      "name": "Sketchfab_Scene",
      "nodes": [
        0
      ]
    }
  ],
  "textures": [
    {
      "sampler": 0,
      "source": 0
    }
  ]
}
